<svg viewBox="0 0 32 32" xmlns="http://www.w3.org/2000/svg">
    <path
        d="m7.875 4 1 9h-.84375l-1.71875-2.5625-.28125-.4375h-4.25l.25 1.1875.96875 4.8125-.96875 4.8125-.25 1.1875h4.25l.28125-.4375 1.71875-2.5625h.84375l-1 9h3.53125l.3125-.28125 8.71875-8.71875h5.5625c1.15625 0 1.894531-.671875 2.5625-1.21875s1.15625-1.09375 1.15625-1.09375l.65625-.6875-.65625-.6875s-.488281-.546875-1.15625-1.09375-1.40625-1.21875-2.5625-1.21875h-5.5625l-8.71875-8.71875-.3125-.28125zm2.25 2h.4375l8.71875 8.71875.3125.28125h6.40625c-.050781 0 .726563.328125 1.28125.78125.136719.113281.132813.113281.25.21875-.117187.105469-.113281.105469-.25.21875-.554687.453125-1.332031.78125-1.28125.78125h-6.40625l-.3125.28125-8.71875 8.71875h-.4375l1-9h-4.1875l-.28125.4375-1.71875 2.5625h-.71875l.75-3.8125.0625-.1875-.0625-.1875-.75-3.8125h.71875l1.71875 2.5625.28125.4375h4.1875zm5.875 1 2 2h2l1-1-1-1zm2 16-2 2h4l1-1-1-1z"/>
</svg>