<?xml version="1.0" encoding="utf-8"?>
<svg fill="none" height="16" width="16" viewBox="0 0 16 16" xmlns="http://www.w3.org/2000/svg">
    <g stroke-linecap="round">
        <!-- Base line -->
        <path d="M3.5 13.5H12.5" stroke="#cc0033"/>

        <!-- Logger body -->
        <path
                d="M14 11.5H2c-.27614 0-.5-.2239-.5-.5v-1c0-.27614.22386-.5.5-.5h5L5.54631 4.41208C5.27253 3.45386 5.99203 2.5 6.9886 2.5h2.0228c.9966 0 1.7161.95386 1.4423 1.91208L9 9.5h5c.2761 0 .5.22386.5.5v1c0 .2761-.2239.5-.5.5Z"
                stroke="#cc0033"
                stroke-linejoin="round"
        />

        <!-- Circle background for "delete" -->
        <circle cx="12" cy="4" r="3" fill="#FFF0F0" stroke="#cc0033" stroke-width="1"/>

        <!-- X inside the circle -->
        <path d="M10.6 2.6L13.4 5.4" stroke="#cc0033" stroke-width="1.1"/>
        <path d="M10.6 5.4L13.4 2.6" stroke="#cc0033" stroke-width="1.1"/>
    </g>
</svg>
