<?xml version="1.0" encoding="utf-8"?>
<svg xmlns="http://www.w3.org/2000/svg" viewBox="1.1747 0.783 13.7023 14.616" width="13.7023px" height="14.616px">
    <g id="alien" style="" transform="matrix(0.24467800557613373, 0, 0, 0.24467800557613373, 0.19631999731063843, 0.19707199931144714)">
        <path d="M 46.489 14.623 C 46.965 13.67 47.98 11.811 49.019 9.961 C 49.178 9.989 49.339 10.005 49.5 10.01 C 52.224 10.04 53.959 7.109 52.622 4.735 C 51.286 2.362 47.881 2.324 46.493 4.669 C 45.629 6.129 45.923 7.997 47.194 9.122 C 45.934 11.352 45.182 12.729 44.752 13.612 C 41.099 11.817 37.069 10.925 33 11.01 C 29.006 10.929 25.048 11.785 21.443 13.507 C 21.006 12.621 20.266 11.27 19.053 9.122 C 21.297 7.237 20.66 3.631 17.906 2.629 C 15.152 1.628 12.347 3.983 12.857 6.869 C 13.22 8.924 15.17 10.303 17.228 9.962 C 18.224 11.734 19.196 13.514 19.695 14.498 C 14.157 18.033 11 24.1 11 32.01 C 11 44.576 29.69 62.01 33 62.01 C 36.31 62.01 55 44.576 55 32.01 C 55 24.189 51.91 18.175 46.489 14.623 Z M 49.5 5.01 C 50.655 5.01 51.376 6.26 50.799 7.26 C 50.222 8.26 48.778 8.26 48.201 7.26 C 48.069 7.032 48 6.773 48 6.51 C 48.001 5.682 48.672 5.011 49.5 5.01 Z M 15.247 6.51 C 15.247 5.355 16.497 4.634 17.497 5.211 C 18.497 5.788 18.497 7.232 17.497 7.809 C 17.269 7.941 17.01 8.01 16.747 8.01 C 15.919 8.009 15.248 7.338 15.247 6.51 Z M 33 59.99 C 30.481 59.076 13 43.968 13 32.01 C 13 24.664 15.858 19.154 20.986 16.007 L 20.986 16.01 L 21.583 15.667 C 25.098 13.817 29.029 12.902 33 13.01 C 45.523 13.01 53 20.112 53 32.01 C 53 43.968 35.519 59.076 33 59.99 Z"/>
        <path d="M 53.7 57.466 C 53.309 57.076 52.676 57.076 52.286 57.466 L 51.519 58.233 L 50.752 57.466 C 50.216 56.913 49.283 57.148 49.072 57.889 C 48.971 58.243 49.073 58.624 49.338 58.88 L 50.105 59.647 L 49.338 60.414 C 48.787 60.952 49.024 61.884 49.765 62.093 C 50.117 62.192 50.496 62.091 50.752 61.828 L 51.519 61.061 L 52.286 61.828 C 52.823 62.379 53.756 62.142 53.964 61.401 C 54.064 61.049 53.962 60.67 53.7 60.414 L 52.933 59.647 L 53.7 58.88 C 54.09 58.489 54.09 57.856 53.7 57.466 Z" style="fill: rgb(68, 0, 253);"/>
        <circle cx="59" cy="15.01" r="1" style="fill: rgb(215, 0, 0);"/>
        <path d="M 8 15.01 C 8.552 15.01 9 14.562 9 14.01 L 9 13.01 C 9 12.24 8.167 11.759 7.5 12.144 C 7.191 12.322 7 12.653 7 13.01 L 7 14.01 C 7 14.562 7.448 15.01 8 15.01 Z" style="fill: rgb(15, 246, 0);"/>
        <path d="M 8 17.01 C 7.448 17.01 7 17.458 7 18.01 L 7 19.01 C 7 19.78 7.833 20.261 8.5 19.876 C 8.809 19.697 9 19.367 9 19.01 L 9 18.01 C 9 17.458 8.552 17.01 8 17.01 Z" style="fill: rgb(15, 246, 0);"/>
        <path d="M 6 15.01 L 5 15.01 C 4.23 15.01 3.749 15.843 4.134 16.51 C 4.313 16.819 4.643 17.01 5 17.01 L 6 17.01 C 6.77 17.01 7.251 16.177 6.866 15.51 C 6.687 15.2 6.357 15.01 6 15.01 Z" style="fill: rgb(15, 246, 0);"/>
        <path d="M 12 16.01 C 12 15.458 11.552 15.01 11 15.01 L 10 15.01 C 9.23 15.01 8.749 15.843 9.134 16.51 C 9.313 16.819 9.643 17.01 10 17.01 L 11 17.01 C 11.552 17.01 12 16.562 12 16.01 Z" style="fill: rgb(15, 246, 0);"/>
        <path d="M 42.638 23.638 C 40.169 23.858 37.908 25.113 36.416 27.092 C 34.018 30.546 35.103 35.324 36.978 36.737 C 37.716 37.225 38.591 37.465 39.476 37.422 C 39.88 37.421 40.284 37.387 40.683 37.321 C 42.923 36.982 44.935 35.763 46.273 33.935 C 48.627 30.544 47.105 25.626 45.808 24.369 C 44.893 23.707 43.75 23.443 42.638 23.638 Z"/>
        <path d="M 30.122 27.092 C 28.63 25.112 26.369 23.857 23.9 23.638 C 22.788 23.444 21.645 23.708 20.73 24.369 C 19.433 25.626 17.911 30.544 20.264 33.935 C 21.603 35.763 23.615 36.982 25.855 37.321 C 26.254 37.387 26.658 37.421 27.062 37.422 C 27.946 37.465 28.821 37.225 29.56 36.737 C 31.436 35.324 32.521 30.546 30.122 27.092 Z"/>
        <path d="M 33 43.01 C 30.792 43.012 29.002 44.802 29 47.01 C 29 49 30.596 52.01 33 52.01 C 35.404 52.01 37 49 37 47.01 C 36.998 44.802 35.208 43.012 33 43.01 Z"/>
    </g>
</svg>